<svg width="474" height="543" viewBox="0 0 474 543" fill="none" xmlns="http://www.w3.org/2000/svg">
<path d="M353.716 424.373C352.896 418.007 352.259 411.759 351.256 405.576C349.369 394.004 345.984 382.839 341.525 372C337.186 361.471 331.907 351.444 325.863 341.782C320.647 333.45 314.882 325.523 308.624 317.971C300.661 308.357 292.221 299.166 282.833 290.913C274.018 283.161 265.116 275.521 256.269 267.818C247.646 260.305 239.309 252.482 231.832 243.808C226.991 238.189 222.054 232.634 217.611 226.713C213.263 220.92 209.385 214.76 205.476 208.648C200.061 200.18 195.61 191.188 191.692 181.94C187.783 172.716 184.478 163.278 182.336 153.489C180.808 146.502 179.295 139.483 178.371 132.4C177.551 126.089 177.519 119.666 177.248 113.292C177.224 112.743 177.861 111.883 178.403 111.644C187.56 107.594 197.035 104.753 207.06 103.718C214.37 102.962 221.64 102.914 228.942 103.662C235.16 104.291 241.236 105.525 247.303 106.997C255.704 109.042 263.707 112.154 271.47 115.831C276.749 118.329 281.861 121.25 286.854 124.298C292.006 127.45 297.062 130.8 301.903 134.421C306.673 137.986 311.228 141.854 315.671 145.825C323.347 152.693 330.402 160.182 336.995 168.109C344.918 177.643 352.044 187.734 358.454 198.334C364.967 209.102 370.693 220.283 375.343 231.966C378.607 240.163 381.601 248.487 384.157 256.931C386.602 265.001 388.648 273.23 390.257 281.514C391.65 288.716 392.383 296.07 393.036 303.383C393.641 310.084 393.896 316.833 394.039 323.566C394.119 327.402 393.744 331.261 393.41 335.089C392.972 340.135 392.478 345.18 391.817 350.202C391.435 353.075 390.838 355.94 390.05 358.725C387.964 366.079 386.045 373.512 383.433 380.69C381.299 386.54 378.592 392.246 375.542 397.673C370.048 407.478 363.128 416.248 354.696 423.752C354.385 423.999 354.003 424.19 353.716 424.373Z" fill="#FFDFB4"/>
<path d="M158.05 124.513C158.249 126.208 158.448 127.545 158.568 128.89C159.858 143.661 162.86 158.065 167.43 172.175C171.141 183.651 175.584 194.817 181.389 205.377C185.665 213.168 190.172 220.848 194.973 228.321C201.287 238.15 208.661 247.214 216.44 255.928C224.578 265.049 233.281 273.612 242.494 281.634C250.369 288.494 258.563 295.004 266.326 301.991C276.94 311.541 286.854 321.799 295.748 333.02C301.123 339.809 306.163 346.804 310.686 354.173C316.395 363.461 321.284 373.138 325.098 383.372C327.877 390.837 330.21 398.413 331.731 406.228C333.308 414.354 334.351 422.543 334.112 430.843C334.056 432.873 334.041 434.902 333.865 436.924C333.818 437.425 333.316 438.101 332.846 438.324C326.15 441.563 319.142 443.887 311.865 445.407C304.412 446.967 296.879 447.643 289.29 447.373C284.855 447.214 280.42 446.688 276.009 446.131C265.936 444.842 256.238 442.065 246.866 438.221C241.937 436.199 237.151 433.796 232.421 431.337C227.994 429.037 223.583 426.649 219.434 423.896C214.282 420.482 209.377 416.702 204.433 412.985C197.139 407.51 190.546 401.239 184.231 394.689C175.488 385.624 167.574 375.884 160.407 365.522C150.502 351.189 142.029 336.068 135.484 319.929C132.044 311.453 128.827 302.85 126.176 294.112C123.588 285.589 121.478 276.883 119.846 268.128C118.364 260.226 117.6 252.164 116.907 244.142C116.358 237.823 116.119 231.457 116.246 225.114C116.366 219.177 117.067 213.24 117.648 207.319C117.974 203.969 118.548 200.642 119.065 197.316C119.344 195.517 119.623 193.703 120.084 191.936C122.234 183.635 124.058 175.239 127.776 167.424C129.353 164.122 130.555 160.612 132.331 157.429C135.07 152.518 138.04 147.728 141.13 143.032C145.621 136.124 151.378 130.275 158.05 124.513Z" fill="#FFDFB4"/>
</svg>
