<svg width="596" height="842" viewBox="0 0 596 842" fill="none" xmlns="http://www.w3.org/2000/svg">
<path d="M78.4101 501.22C78.4101 500.56 78.4101 500.08 78.4101 499.6C78.4101 438.72 78.4101 377.84 78.3901 316.96C78.3901 315.89 78.7201 315.14 79.4601 314.41C89.8301 304.1 100.18 293.78 110.52 283.46C122.03 271.97 133.54 260.47 145.05 248.97C147.96 246.06 150.85 243.13 153.8 240.27C154.22 239.86 154.94 239.72 155.54 239.54C155.87 239.44 156.24 239.52 156.6 239.52C259.77 239.52 362.95 239.52 466.12 239.52C468.75 239.52 468.45 239.31 468.45 241.89C468.46 257.43 468.45 272.97 468.45 288.51C468.45 289.07 468.45 289.62 468.45 290.36C466.57 289.8 464.95 289.26 463.3 288.84C459.24 287.81 455.17 286.79 451.08 285.87C450.06 285.64 449.7 285.29 449.71 284.23C449.75 276.17 449.73 268.11 449.73 260.05C449.73 259.53 449.73 259 449.73 258.37C357.09 258.37 264.58 258.37 171.9 258.37C171.9 258.98 171.9 259.54 171.9 260.1C171.9 284.5 171.9 308.89 171.9 333.29C171.9 335.91 172.19 335.58 169.67 335.58C146.11 335.59 122.56 335.58 99.0001 335.58C97.1101 335.58 97.1101 335.58 97.1101 337.42C97.1101 385.2 97.1101 432.97 97.1101 480.75C97.1101 481.28 97.1101 481.81 97.1101 482.52C184.67 482.52 272.13 482.52 359.74 482.52C358.76 485.44 357.86 488.14 356.93 490.83C355.85 493.95 354.69 497.05 353.65 500.18C353.37 501.03 352.96 501.32 352.13 501.2C351.87 501.16 351.6 501.19 351.33 501.19C261.04 501.19 170.75 501.19 80.4601 501.19C79.8601 501.22 79.2401 501.22 78.4101 501.22ZM153.18 265.86C153.08 265.8 152.98 265.74 152.89 265.68C135.8 282.6 118.7 299.51 101.39 316.64C118.91 316.64 136.01 316.64 153.18 316.64C153.18 299.63 153.18 282.75 153.18 265.86Z" fill="#EAC799"/>
<path d="M350.35 423.49C350.55 421.05 350.88 416.82 351.26 412.59C351.7 407.68 350.41 403.16 348.34 398.78C346.37 394.6 344.24 390.48 342.64 386.16C340.83 381.27 341.51 376.41 344.61 372.17C347.1 368.76 349.79 365.48 352.63 362.35C357.01 357.5 359.52 351.91 360.42 345.46C360.93 341.84 361.74 338.26 362.63 334.71C364.04 329.11 367.6 325.31 373.04 323.5C376.67 322.29 380.41 321.29 384.17 320.63C391.17 319.39 396.74 315.87 401.68 310.94C404.6 308.03 407.73 305.29 411.02 302.82C414.84 299.96 419.31 299.52 423.78 300.95C427.64 302.18 431.42 303.71 435.12 305.35C440.63 307.8 446.22 308.95 452.26 307.93C456.22 307.26 460.24 306.89 464.25 306.59C469.46 306.2 474.28 307.34 477.72 311.58C479.87 314.23 481.69 317.17 483.51 320.08C486 324.08 488.07 328.45 491.94 331.3C495.08 333.61 498.54 335.51 501.94 337.45C505.31 339.37 508.82 341.04 511.67 343.76C514.65 346.6 516.18 350.15 516.15 354.16C516.12 358.88 515.79 363.62 515.3 368.31C514.72 373.92 516 379.05 518.42 384.04C520.32 387.95 522.2 391.89 523.76 395.95C525.87 401.43 524.75 406.59 521.2 411.15C518.28 414.9 515.14 418.48 512.08 422.13C509.05 425.74 507.41 429.93 506.59 434.54C505.83 438.84 505.04 443.14 503.99 447.37C502.46 453.54 498.38 457.45 492.34 459.19C488.19 460.38 483.97 461.3 479.76 462.27C474.48 463.48 470.14 466.26 466.3 469.99C463.39 472.81 460.43 475.59 457.36 478.22C452.77 482.15 447.42 482.89 441.81 481.06C437.93 479.79 434.14 478.19 430.4 476.52C425.33 474.26 420.1 473.49 414.62 474.23C410.99 474.72 407.36 475.27 403.72 475.73C395.99 476.71 390.12 473.77 386.02 467.2C383.86 463.73 381.72 460.24 379.58 456.74C377 452.51 373.3 449.54 369.01 447.19C365.31 445.16 361.49 443.27 358.03 440.89C351.72 436.53 350.2 433.12 350.35 423.49ZM434.89 330.97C402.57 330.39 374.51 354.63 373.2 389.32C372 421.15 396.66 450.06 431.63 451.19C463.29 452.22 492.45 427.43 493.37 392.44C494.2 360.7 469.5 332.41 434.89 330.97Z" fill="#EAC799"/>
<path d="M377.73 479.6C378.73 481.01 379.5 482.17 380.34 483.28C383.38 487.28 387 490.55 391.8 492.31C396.18 493.91 400.72 494.06 405.27 493.57C409 493.17 412.71 492.55 416.43 492C420.44 491.4 424.09 492.57 427.74 494.07C432.17 495.89 436.63 497.67 441.19 499.13C445.4 500.48 449.74 500.38 454 499.04C457.32 498 460.24 496.22 462.98 494.12C463.18 493.97 463.4 493.85 463.9 493.53C463.83 494.49 463.82 495.2 463.72 495.9C463.15 499.92 462.57 503.95 461.97 507.97C461.24 512.91 460.46 517.84 459.75 522.77C459.21 526.49 458.78 530.22 458.24 533.94C457.53 538.88 456.74 543.81 456.03 548.74C455.5 552.41 455.06 556.1 454.53 559.78C453.81 564.76 453.03 569.74 452.31 574.72C451.79 578.35 451.35 581.99 450.82 585.62C450.1 590.65 449.32 595.67 448.58 600.69C448.34 602.35 448.24 604.04 447.9 605.68C447.17 609.14 444.84 609.93 442.15 607.66C439.19 605.16 436.26 602.62 433.32 600.1C426.4 594.17 419.57 588.12 412.5 582.36C408.96 579.48 404.88 579.4 400.67 581.35C393.16 584.83 385.57 588.14 378.03 591.54C374.34 593.2 370.66 594.88 366.97 596.55C366.57 596.73 366.16 596.9 365.74 597.03C362.85 597.87 361.13 596.55 361.47 593.58C361.98 589.19 362.68 584.83 363.29 580.45C363.8 576.77 364.26 573.09 364.79 569.42C365.51 564.44 366.29 559.46 367.01 554.48C367.53 550.85 367.98 547.21 368.5 543.58C369.23 538.55 370.01 533.54 370.73 528.51C371.25 524.92 371.69 521.33 372.21 517.74C372.94 512.67 373.73 507.61 374.46 502.54C374.99 498.87 375.43 495.18 375.95 491.5C376.5 487.66 377.1 483.83 377.73 479.6Z" fill="#EAC799"/>
<path d="M123.87 437.16C124.56 437.16 125.12 437.16 125.69 437.16C194.75 437.16 263.82 437.16 332.88 437.13C334.08 437.13 334.73 437.39 335.28 438.54C338.04 444.31 341.31 449.79 345.11 454.94C345.26 455.14 345.34 455.39 345.5 455.72C271.58 455.72 197.76 455.72 123.88 455.72C123.87 449.57 123.87 443.48 123.87 437.16Z" fill="#EAC799"/>
<path d="M426.08 277.02C426.08 279.48 426.08 281.81 426.08 284.24C424.64 284.37 423.24 284.51 421.85 284.63C413.27 285.4 404.9 287.19 396.8 290.07C392.74 291.51 388.83 293.39 384.83 295.01C384.04 295.33 383.15 295.54 382.3 295.54C331.38 295.56 280.46 295.56 229.54 295.56C219.84 295.56 210.15 295.56 200.45 295.56C199.92 295.56 199.4 295.56 198.75 295.56C198.75 289.35 198.75 283.23 198.75 277.02C274.49 277.02 350.23 277.02 426.08 277.02Z" fill="#EAC799"/>
<path d="M330.17 357C329.77 358.38 329.39 359.49 329.12 360.63C327.98 365.39 326.88 370.16 325.72 374.91C325.64 375.25 325.19 375.59 324.84 375.74C324.5 375.88 324.06 375.77 323.66 375.77C257.74 375.77 191.82 375.77 125.89 375.77C125.54 375.77 125.18 375.74 124.83 375.77C123.99 375.85 123.79 375.45 123.79 374.67C123.81 369.14 123.82 363.6 123.79 358.07C123.79 357.27 124.04 356.92 124.85 356.99C125.25 357.02 125.65 356.99 126.04 356.99C193.38 356.99 260.72 356.99 328.06 356.99C328.67 357 329.28 357 330.17 357Z" fill="#EAC799"/>
<path d="M324.33 397.18C325.21 403.38 326.07 409.45 326.95 415.62C259.41 415.62 191.68 415.62 123.87 415.62C123.87 409.48 123.87 403.39 123.87 397.18C190.75 397.18 257.61 397.18 324.33 397.18Z" fill="#EAC799"/>
<path d="M198.71 335.67C198.71 329.37 198.71 323.29 198.71 317.11C250.6 317.11 302.41 317.11 354.49 317.11C353.16 318.58 351.87 319.82 350.81 321.23C347.51 325.58 344.27 329.97 341.07 334.39C340.43 335.28 339.83 335.7 338.65 335.7C298.14 335.66 257.64 335.67 217.13 335.67C211.51 335.67 205.89 335.67 200.26 335.67C199.79 335.67 199.31 335.67 198.71 335.67Z" fill="#EAC799"/>
<path d="M501.62 472.37C502.51 476.58 503.38 480.72 504.27 484.86C505.35 489.86 506.46 494.86 507.54 499.86C508.32 503.48 509.06 507.11 509.84 510.73C510.92 515.73 512.03 520.73 513.11 525.73C513.9 529.39 514.64 533.07 515.43 536.74C516.5 541.7 517.6 546.65 518.68 551.6C518.97 552.94 519.33 554.26 519.52 555.61C519.84 557.89 518.22 560.46 514.66 559.39C509.05 557.7 503.44 556.02 497.82 554.36C494.06 553.25 490.28 552.19 486.52 551.08C481.83 549.7 477.16 548.27 472.46 546.9C471.73 546.69 471.45 546.36 471.56 545.6C471.98 542.67 472.35 539.73 472.76 536.8C473.33 532.82 473.92 528.84 474.51 524.87C475.25 519.89 476.02 514.92 476.74 509.93C477.26 506.34 477.7 502.75 478.22 499.16C478.95 494.09 479.73 489.03 480.48 483.96C480.6 483.17 480.83 482.37 480.77 481.6C480.54 478.98 482.36 477.88 484.25 477.03C486.16 476.17 488.2 475.55 490.24 475.03C493.95 474.08 497.7 473.28 501.62 472.37Z" fill="#EAC799"/>
<path d="M153.18 265.86C153.18 282.75 153.18 299.64 153.18 316.63C136.01 316.63 118.91 316.63 101.39 316.63C118.7 299.5 135.79 282.59 152.89 265.67C152.98 265.73 153.08 265.79 153.18 265.86Z" fill="#EAC799"/>
</svg>
